<?xml version="1.0" standalone="no"?><!DOCTYPE svg PUBLIC "-//W3C//DTD SVG 1.1//EN" "http://www.w3.org/Graphics/SVG/1.1/DTD/svg11.dtd"><svg t="1699323259340" class="icon" viewBox="0 0 1024 1024" version="1.1" xmlns="http://www.w3.org/2000/svg" p-id="14690" xmlns:xlink="http://www.w3.org/1999/xlink" width="200" height="200"><path d="M140.2 739.4l84.8 41.6c48 23.6 100.8 35.8 154.4 35.8h265c53.6 0 106.4-12.2 154.4-35.8l84.8-41.6H140.2zM595.2 739.4c190.4-65.2 167.2-280 167.2-280H254.8s-23.2 215 167.2 280h173.2z" fill="#dbdbdb" p-id="14691"></path><path d="M881.6 540.2c-17 59.8-63 102.8-120.2 124.6-22.8 8.6-44.8 13.8-69 13.8 13.8-14.6 25-30.2 34-46.2 46.2-13.2 97.6-42 115.2-103.8 2.2-8-2-13.6-4-15.6s-7.6-6.6-16-4.4l-60.8 15.6c2.2-17.2 2.8-32.2 2.8-43.4l47.4-12.6c20.6-5.4 41.6 0.4 56.6 15.6 14.4 15 19.8 36 14 56.4z" fill="#dbdbdb" p-id="14692"></path><path d="M595.2 739.4c190.4-65.2 167.2-280 167.2-280H254.8s-23.2 215 167.2 280h173.2z" fill="#dbdbdb" p-id="14693"></path><path d="M881.6 540.2c-17 59.8-63 102.8-120.2 124.6-22.8 8.6-44.8 13.8-69 13.8 13.8-14.6 25-30.2 34-46.2 46.2-13.2 97.6-42 115.2-103.8 2.2-8-2-13.6-4-15.6s-7.6-6.6-16-4.4l-60.8 15.6c2.2-17.2 2.8-32.2 2.8-43.4l47.4-12.6c20.6-5.4 41.6 0.4 56.6 15.6 14.4 15 19.8 36 14 56.4z" fill="#dbdbdb" p-id="14694"></path><path d="M644.6 827.6H379.4c-54.8 0-110-12.8-159.2-37l-127.2-62.4h838l-127.2 62.4c-49.4 24.4-104.4 37-159.2 37zM187.4 750.4l42.6 20.8c46.4 22.6 98 34.6 149.6 34.6h265.2c51.6 0 103.2-12 149.6-34.6l42.6-20.8H187.4zM366.8 844.6h290.2v21.8H366.8z" fill="#dbdbdb" p-id="14695"></path><path d="M597 750.4H420l-1.8-0.6c-81.4-27.8-137.4-87.2-162-171.8-18.4-63.2-12.8-117.6-12.6-119.8l1-9.8h527.2l1 9.8c0.2 2.2 5.8 56.6-12.6 119.8-24.6 84.6-80.6 144-162 171.8l-1.2 0.6z m-173.2-22h169.6c74.2-26 123.4-78.4 146-155.8 13-44 13.2-84.4 12.6-102.4H265c-0.6 18-0.4 58.2 12.6 102.4 22.8 77.4 72 130 146.2 155.8z" fill="#dbdbdb" p-id="14696"></path><path d="M692.4 689.6h-25.6l17.6-18.4c12.4-13 23.2-27.8 32.4-44l2.2-4 4.4-1.2c58-16.6 94.2-49 107.6-96.2 0.2-0.6 0.8-2.8-1.4-5-0.6-0.6-2.6-2.2-5.4-1.6l-76.4 19.6 2-16c1.8-14 2.6-28 2.6-42v-8.4l55.4-14.8c6-1.6 12-2.4 18-2.4 18.6 0 36 7.4 49.2 20.8 17.6 17.8 24 43 17.2 67-17 59.6-63.2 107.8-126.8 132-26.2 10-49.2 14.6-73 14.6z m41.2-48c-4.8 8.4-10.2 16.4-16 24 12.8-2 25.8-5.6 39.8-11 57-21.8 98.6-64.6 113.6-117.4 4.6-16.4 0.4-33.4-11.6-45.6-9-9.2-21-14.2-33.6-14.2-4.2 0-8.4 0.6-12.4 1.6l-39.2 10.4c-0.2 6.8-0.6 13.6-1 20.4l45.6-11.8c9.2-2.4 19.6 0.4 26.6 7.4s9.4 16.8 6.8 26.4c-15.4 52.8-56.2 90.8-118.6 109.8z" fill="#dbdbdb" p-id="14697"></path><path d="M597 750.4H420l-1.8-0.6c-81.4-27.8-137.4-87.2-162-171.8-18.4-63.2-12.8-117.6-12.6-119.8l1-9.8h527.2l1 9.8c0.2 2.2 5.8 56.6-12.6 119.8-24.6 84.6-80.6 144-162 171.8l-1.2 0.6z m-173.2-22h169.6c74.2-26 123.4-78.4 146-155.8 13-44 13.2-84.4 12.6-102.4H265c-0.6 18-0.4 58.2 12.6 102.4 22.8 77.4 72 130 146.2 155.8z" fill="#dbdbdb" p-id="14698"></path><path d="M692.4 689.6h-25.6l17.6-18.4c12.4-13 23.2-27.8 32.4-44l2.2-4 4.4-1.2c58-16.6 94.2-49 107.6-96.2 0.2-0.6 0.8-2.8-1.4-5-0.6-0.6-2.6-2.2-5.4-1.6l-76.4 19.6 2-16c1.8-14 2.6-28 2.6-42v-8.4l55.4-14.8c6-1.6 12-2.4 18-2.4 18.6 0 36 7.4 49.2 20.8 17.6 17.8 24 43 17.2 67-17 59.6-63.2 107.8-126.8 132-26.2 10-49.2 14.6-73 14.6z m41.2-48c-4.8 8.4-10.2 16.4-16 24 12.8-2 25.8-5.6 39.8-11 57-21.8 98.6-64.6 113.6-117.4 4.6-16.4 0.4-33.4-11.6-45.6-9-9.2-21-14.2-33.6-14.2-4.2 0-8.4 0.6-12.4 1.6l-39.2 10.4c-0.2 6.8-0.6 13.6-1 20.4l45.6-11.8c9.2-2.4 19.6 0.4 26.6 7.4s9.4 16.8 6.8 26.4c-15.4 52.8-56.2 90.8-118.6 109.8z" fill="#dbdbdb" p-id="14699"></path><path d="M509.6 301.2c-51.6-61.6-22.2-120.8 0.6-143.6l15.4 15.4-7.8-7.8 7.8 7.8c-2 2.2-50.8 52.8 0.6 114.2l-16.6 14z" fill="#dbdbdb" p-id="14700"></path><path d="M569.4 375.2l-16.8-14c51.8-61.8 2.8-112 0.6-114.2l15.4-15.4c22.8 22.6 52.4 82 0.8 143.6z" fill="#dbdbdb" p-id="14701"></path><path d="M447.8 420.2c-51.6-61.6-22.2-120.8 0.6-143.6l15.4 15.4-7.8-7.8 7.8 7.8c-2 2.2-50.8 52.8 0.6 114.2l-16.6 14z" fill="#dbdbdb" p-id="14702"></path></svg>